<svg xmlns="http://www.w3.org/2000/svg" viewBox="0 0 512 512" role="img" aria-label="Berreta Futura"><title>Berreta Futura</title><rect width="512" height="512" rx="0" fill="var(--tile, #f05738)"/><path fill="var(--box, #0a0b0d)" transform="translate(189.71 393.24) scale(0.13955 -0.13955) matrix(1 0 0.176327 1 0 0)" d="M0 0H1595.8V1966.8H0Z"/><path fill="var(--paper, #ffffff)" transform="translate(189.71 393.24) scale(0.13955 -0.13955) matrix(1 0 0.176327 1 0 0) translate(158.4 238.4)" d="M80 0V1490H1199V1138H496V874H1159V536H496V0Z"/><path fill="var(--paper, #ffffff)" transform="translate(40.04 359.97) scale(0.13955 -0.13955)" d="M80 0V1490H726Q981 1490 1113.5 1385.5Q1246 1281 1246 1118Q1246 988 1167.0 899.0Q1088 810 958 785V783Q1054 780 1130.5 733.5Q1207 687 1251.5 607.0Q1296 527 1296 422Q1296 300 1235.0 204.5Q1174 109 1059.0 54.5Q944 0 782 0ZM484 312H704Q780 312 825.0 352.0Q870 392 870 459Q870 526 825.0 566.0Q780 606 704 606H484ZM484 900H679Q748 900 789.0 938.0Q830 976 830 1039Q830 1102 789.0 1140.0Q748 1178 679 1178H484Z"/></svg>
